


  <!-- Start/End -->

<!--

  <g transform="translate(250,0)">
    <rect x="0" y="0" rx="50" ry="50" width="200" height="100" style="fill:white; stroke:black;" />
    <text x="50" y="65" fill="black">Begin</text>
  </g>

-->



  <!-- Arrow -->

<!--
  
  <g transform="translate(350,100)" stroke-width="3">
    <line x1="0" y1="0" x2="0" y2="100" style="stroke:black;" />
    <line x1="-10" y1="90" x2="0" y2="100" style="stroke:black;" />
    <line x1="10" y1="90" x2="0" y2="100" style="stroke:black;" />
  </g>

-->



  <!-- Data -->

<!--
  
  <g transform="translate(175,200)">
    <polygon points="0,0 400,0 340,100 -60,100" style="fill:white; stroke:black;" />
    <text x="0" y="65" fill="black">Print "Hello World"</text>
  </g>

-->


<svg  version="1.1" xmlns="http://www.w3.org/2000/svg">



  <svg width="2480" height="3508">



    <g transform="translate(0,30)" style="font: 32pt sans;">



      <g transform="translate(250,0)">
        <rect x="0" y="0" rx="50" ry="50" width="200" height="100" style="fill:white; stroke:black;" />
        <text x="50" y="65" fill="black">Begin</text>
      </g>



      <g transform="translate(350,100)" stroke-width="3">
        <line x1="0" y1="0" x2="0" y2="100" style="stroke:black;" />
        <line x1="-10" y1="90" x2="0" y2="100" style="stroke:black;" />
        <line x1="10" y1="90" x2="0" y2="100" style="stroke:black;" />
      </g>



      <g transform="translate(175,200)">
        <polygon points="0,0 400,0 340,100 -60,100" style="fill:white; stroke:black;" />
        <text x="0" y="65" fill="black">Print "Hello World"</text>
      </g>



      <g transform="translate(350,300)" stroke-width="3">
        <line x1="0" y1="0" x2="0" y2="100" style="stroke:black;" />
        <line x1="-10" y1="90" x2="0" y2="100" style="stroke:black;" />
        <line x1="10" y1="90" x2="0" y2="100" style="stroke:black;" />
      </g>



      <g transform="translate(250,400)">
        <rect x="0" y="0" rx="60" ry="60" width="200" height="100" style="fill:white; stroke:black;" />
        <text x="60" y="65">End</text>
      </g>



    </g>



  </svg>



</svg>


